<?xml version="1.0" standalone="no"?>
<!DOCTYPE svg PUBLIC "-//W3C//DTD SVG 20010904//EN"
 "http://www.w3.org/TR/2001/REC-SVG-20010904/DTD/svg10.dtd">
<svg version="1.0" xmlns="http://www.w3.org/2000/svg"
 width="500.000000pt" height="500.000000pt" viewBox="0 0 500.000000 500.000000"
 preserveAspectRatio="xMidYMid meet">
<metadata>
Created by potrace 1.14, written by Peter Selinger 2001-2017
</metadata>
<g transform="translate(0.000000,500.000000) scale(0.100000,-0.100000)"
fill="#000000" stroke="none">
<path d="M2390 3967 c-3 -2 -34 -8 -69 -11 -223 -23 -497 -131 -687 -271 -262
-192 -460 -480 -547 -795 -14 -52 -29 -115 -33 -140 -3 -25 -10 -70 -14 -100
-11 -73 -6 -276 9 -370 52 -318 195 -599 416 -815 174 -170 345 -278 557 -351
175 -60 293 -79 493 -79 383 2 742 152 1019 428 207 207 353 476 401 744 9 48
20 105 25 125 4 21 7 104 5 185 -4 232 -47 417 -145 618 -45 94 -125 223 -180
290 -30 37 -175 181 -214 214 -174 144 -439 265 -666 306 -92 16 -360 32 -370
22z"/>
</g>
</svg>
